<?xml version="1.0" encoding="UTF-8" standalone="no"?>
<!-- Created with Inkscape (http://www.inkscape.org/) -->

<svg
   width="210mm"
   height="297mm"
   viewBox="0 0 210 297"
   version="1.1"
   id="svg5"
   xmlns:inkscape="http://www.inkscape.org/namespaces/inkscape"
   xmlns:sodipodi="http://sodipodi.sourceforge.net/DTD/sodipodi-0.dtd"
   xmlns="http://www.w3.org/2000/svg"
   xmlns:svg="http://www.w3.org/2000/svg">
  <sodipodi:namedview
     id="namedview7"
     pagecolor="#ffffff"
     bordercolor="#666666"
     borderopacity="1.0"
     inkscape:showpageshadow="2"
     inkscape:pageopacity="0.0"
     inkscape:pagecheckerboard="0"
     inkscape:deskcolor="#d1d1d1"
     inkscape:document-units="mm"
     showgrid="false"
     inkscape:zoom="1.7853042"
     inkscape:cx="237.49454"
     inkscape:cy="504.11578"
     inkscape:window-width="1680"
     inkscape:window-height="1027"
     inkscape:window-x="-8"
     inkscape:window-y="-8"
     inkscape:window-maximized="1"
     inkscape:current-layer="layer1" />
  <defs
     id="defs2" />
  <g
     inkscape:label="Layer 1"
     inkscape:groupmode="layer"
     id="layer1">
    <text
       xml:space="preserve"
       style="font-style:normal;font-variant:normal;font-weight:normal;font-stretch:normal;font-size:6.86258px;line-height:1.25;font-family:'Berlin Sans FB Demi';-inkscape-font-specification:'Berlin Sans FB Demi, Normal';font-variant-ligatures:normal;font-variant-caps:normal;font-variant-numeric:normal;font-variant-east-asian:normal;letter-spacing:0.259063px;word-spacing:0px;stroke-width:0.171565"
       x="69.575165"
       y="116.31369"
       id="text348"><tspan
         sodipodi:role="line"
         id="tspan346"
         style="font-style:normal;font-variant:normal;font-weight:normal;font-stretch:normal;font-size:6.86258px;font-family:'Berlin Sans FB Demi';-inkscape-font-specification:'Berlin Sans FB Demi, Normal';font-variant-ligatures:normal;font-variant-caps:normal;font-variant-numeric:normal;font-variant-east-asian:normal;stroke-width:0.171565"
         x="69.575165"
         y="116.31369">ukky</tspan></text>
    <text
       xml:space="preserve"
       style="font-style:normal;font-variant:normal;font-weight:normal;font-stretch:normal;font-size:6.86258px;line-height:1.25;font-family:'Berlin Sans FB Demi';-inkscape-font-specification:'Berlin Sans FB Demi, Normal';font-variant-ligatures:normal;font-variant-caps:normal;font-variant-numeric:normal;font-variant-east-asian:normal;letter-spacing:0.259063px;word-spacing:0px;stroke-width:0.171565"
       x="77.480247"
       y="111.50491"
       id="text186"><tspan
         sodipodi:role="line"
         id="tspan184"
         style="font-style:normal;font-variant:normal;font-weight:normal;font-stretch:normal;font-size:6.86258px;font-family:'Berlin Sans FB Demi';-inkscape-font-specification:'Berlin Sans FB Demi, Normal';font-variant-ligatures:normal;font-variant-caps:normal;font-variant-numeric:normal;font-variant-east-asian:normal;stroke-width:0.171565"
         x="77.480247"
         y="111.50491">Air</tspan></text>
    <text
       xml:space="preserve"
       style="font-style:normal;font-variant:normal;font-weight:normal;font-stretch:normal;font-size:18.5455px;line-height:1.25;font-family:'Berlin Sans FB Demi';-inkscape-font-specification:'Berlin Sans FB Demi, Normal';font-variant-ligatures:normal;font-variant-caps:normal;font-variant-numeric:normal;font-variant-east-asian:normal;letter-spacing:0.700095px;word-spacing:0px;stroke-width:0.463638"
       x="57.881413"
       y="117.11579"
       id="text458"><tspan
         sodipodi:role="line"
         id="tspan456"
         style="font-style:normal;font-variant:normal;font-weight:normal;font-stretch:normal;font-size:18.5455px;font-family:'Berlin Sans FB Demi';-inkscape-font-specification:'Berlin Sans FB Demi, Normal';font-variant-ligatures:normal;font-variant-caps:normal;font-variant-numeric:normal;font-variant-east-asian:normal;stroke-width:0.463638"
         x="57.881413"
         y="117.11579">B</tspan></text>
    <path
       d="m 55.524732,105.33675 c -0.321923,0 -0.476423,1.06371 -0.531161,1.56242 -0.01138,0.15129 -0.02417,0.28873 -0.02417,0.42988 v 1.50334 c -0.0033,0.0856 -0.01821,0.10942 -0.06769,0.15253 l -1.160742,1.01119 c -0.0792,0.0548 -0.18226,0.0527 -0.174378,-0.13551 v -0.13439 c 0,-0.0741 -0.05922,-0.13439 -0.133284,-0.13439 h -0.166603 c -0.07406,0 -0.134395,0.0603 -0.134395,0.13439 v 0.78816 c 4.01e-4,0.0241 -0.0039,0.0261 -0.02107,0.0414 l -1.100711,0.97866 c -0.11272,0.0785 -0.154019,0.001 -0.15994,-0.13661 v -0.24546 c 0,-0.0741 -0.05922,-0.1344 -0.133283,-0.1344 h -0.166604 c -0.07406,0 -0.134394,0.0603 -0.134394,0.1344 v 0.81635 c -7.5e-5,0.0102 -0.0043,0.0112 -0.0089,0.0165 l -1.18062,1.01859 c -0.07517,0.0962 -0.119724,0.14011 -0.116623,0.30321 l -0.0042,0.45781 c -0.0095,0.0623 0.04864,0.0871 0.08948,0.0675 0,0 2.015987,-1.24468 2.789111,-1.58596 0.773199,-0.34127 1.803766,-0.57534 1.803766,-0.57534 0.07947,-0.0192 0.150522,-0.0215 0.181042,0.0633 v 3.30644 0.13772 c 0.0021,0.4111 0.157344,0.65982 0,0.80747 l -1.285178,1.24905 c -0.07804,0.0832 -0.123081,0.15435 -0.13221,0.28879 l 0.0019,0.14228 c 0.0043,0.0666 0.02933,0.10077 0.09031,0.0929 l 1.643823,-0.40416 c 0.04311,-0.0136 0.07737,-0.009 0.107619,0.0328 l 0.167883,0.36982 0.206295,-0.37939 c 0.0285,-0.0406 0.08206,-0.06 0.12241,-0.0455 0.507059,0.12008 1.014093,0.24015 1.521152,0.36023 0.06524,0.008 0.118125,0.006 0.126478,-0.081 v -0.21724 c -0.03415,-0.14984 -0.120268,-0.21965 -0.210603,-0.30982 l -1.290296,-1.09877 c -0.120701,-0.12234 -0.0011,-0.38074 0.03998,-0.79526 v -0.13662 -3.26767 l 0.0011,-10e-4 h 0.0011 v -0.001 h 0.0011 v -0.001 h 0.0011 v -10e-4 h 0.0011 c 9.9e-4,-0.005 0.0021,-0.01 0.0033,-0.0144 0.0012,-0.005 0.0031,-0.009 0.0044,-0.0133 0.0014,-0.004 0.0028,-0.008 0.0044,-0.0122 0.0016,-0.004 0.0026,-0.008 0.0044,-0.0122 0.0018,-0.004 0.0035,-0.008 0.0055,-0.0111 0.0021,-0.004 0.0043,-0.007 0.0067,-0.01 0.0024,-0.003 0.0051,-0.006 0.0078,-0.009 0.0027,-0.003 0.0059,-0.006 0.0089,-0.009 0.003,-0.003 0.0056,-0.004 0.0089,-0.007 0.0033,-0.002 0.0074,-0.005 0.01111,-0.007 0.0037,-0.002 0.0071,-0.003 0.01111,-0.004 0.004,-0.001 0.0089,-0.002 0.01333,-0.003 0.0044,-9.4e-4 0.0085,-0.002 0.01333,-0.002 0.0049,-4.7e-4 0.01025,-7e-5 0.01555,0 0.0053,3e-5 0.01091,4.7e-4 0.01666,0.001 0.0057,4.7e-4 0.01155,0.001 0.01777,0.002 0,0 0.93565,0.20292 1.7249,0.53645 0.78925,0.33353 2.893966,1.59326 2.893966,1.59326 0.04821,0.01 0.08887,0.003 0.095,-0.0447 v -0.42561 c 0.0028,-0.11417 -0.06478,-0.21564 -0.114401,-0.26102 l -1.1553,-1.02221 c -0.0398,-0.0484 -0.04868,-0.0577 -0.04978,-0.0863 v -0.80853 c 0,-0.0741 -0.06033,-0.1344 -0.134394,-0.1344 h -0.166603 c -0.07406,0 -0.133284,0.0603 -0.133284,0.1344 v 0.24546 c 0.01293,0.14603 -0.02593,0.20011 -0.116623,0.13106 l -1.133038,-0.97304 c -0.02535,-0.0217 -0.03127,-0.0227 -0.03096,-0.0438 v -0.78579 c 0,-0.0741 -0.06033,-0.1344 -0.134393,-0.1344 h -0.166604 c -0.07406,0 -0.133283,0.0603 -0.133283,0.1344 v 0.13439 c 0.01883,0.18717 -0.104099,0.22468 -0.186596,0.13439 l -1.152941,-1.0125 c -0.05375,-0.0485 -0.05881,-0.0782 -0.06436,-0.14598 v -1.50744 c -0.0036,-0.14901 -0.01167,-0.31613 -0.02803,-0.45225 -0.06718,-0.52798 -0.27178,-1.66727 -0.526191,-1.54006 z"
       fill-rule="evenodd"
       id="path2"
       style="stroke-width:0.0248473" />
    <text
       xml:space="preserve"
       style="font-style:normal;font-variant:normal;font-weight:normal;font-stretch:normal;font-size:6.86258px;line-height:1.25;font-family:'Berlin Sans FB Demi';-inkscape-font-specification:'Berlin Sans FB Demi, Normal';font-variant-ligatures:normal;font-variant-caps:normal;font-variant-numeric:normal;font-variant-east-asian:normal;letter-spacing:0.529167px;word-spacing:0px;fill:#008ed7;fill-opacity:1;stroke-width:0.171565"
       x="60.038937"
       y="142.72171"
       id="text482"><tspan
         sodipodi:role="line"
         id="tspan480"
         style="font-style:normal;font-variant:normal;font-weight:normal;font-stretch:normal;font-size:6.86258px;font-family:'Berlin Sans FB Demi';-inkscape-font-specification:'Berlin Sans FB Demi, Normal';font-variant-ligatures:normal;font-variant-caps:normal;font-variant-numeric:normal;font-variant-east-asian:normal;fill:#008ed7;fill-opacity:1;stroke-width:0.171565"
         x="60.038937"
         y="142.72171">ukky</tspan></text>
    <text
       xml:space="preserve"
       style="font-style:normal;font-variant:normal;font-weight:normal;font-stretch:normal;font-size:6.86258px;line-height:1.25;font-family:'Berlin Sans FB Demi';-inkscape-font-specification:'Berlin Sans FB Demi, Normal';font-variant-ligatures:normal;font-variant-caps:normal;font-variant-numeric:normal;font-variant-east-asian:normal;letter-spacing:0.259292px;word-spacing:0px;fill:#008ed7;fill-opacity:1;stroke-width:0.171565"
       x="64.906853"
       y="137.73666"
       id="text486"><tspan
         sodipodi:role="line"
         id="tspan484"
         style="font-style:normal;font-variant:normal;font-weight:normal;font-stretch:normal;font-size:6.86258px;font-family:'Berlin Sans FB Demi';-inkscape-font-specification:'Berlin Sans FB Demi, Normal';font-variant-ligatures:normal;font-variant-caps:normal;font-variant-numeric:normal;font-variant-east-asian:normal;fill:#008ed7;fill-opacity:1;stroke-width:0.171565"
         x="64.906853"
         y="137.73666"
         dx="0 0 0 0.98000002">air<tspan
   style="fill:#00293e;fill-opacity:1"
   id="tspan1808">.</tspan></tspan></text>
    <text
       xml:space="preserve"
       style="font-style:normal;font-variant:normal;font-weight:normal;font-stretch:normal;font-size:15.9864px;line-height:1.25;font-family:'Berlin Sans FB Demi';-inkscape-font-specification:'Berlin Sans FB Demi, Normal';font-variant-ligatures:normal;font-variant-caps:normal;font-variant-numeric:normal;font-variant-east-asian:normal;letter-spacing:0.603487px;word-spacing:0px;fill:#008ed7;fill-opacity:1;stroke-width:0.399659"
       x="49.937157"
       y="143.5388"
       id="text490"><tspan
         sodipodi:role="line"
         id="tspan488"
         style="font-style:normal;font-variant:normal;font-weight:normal;font-stretch:normal;font-size:15.9864px;font-family:'Berlin Sans FB Demi';-inkscape-font-specification:'Berlin Sans FB Demi, Normal';font-variant-ligatures:normal;font-variant-caps:normal;font-variant-numeric:normal;font-variant-east-asian:normal;fill:#008ed7;fill-opacity:1;stroke-width:0.399659"
         x="49.937157"
         y="143.5388">B</tspan></text>
    <path
       d="m 64.612233,133.21106 c -0.09643,-0.0964 -0.461319,0.17591 -0.627094,0.30889 -0.04873,0.0419 -0.09373,0.0793 -0.136003,0.12153 l -0.450299,0.45029 c -0.02663,0.0247 -0.03823,0.0273 -0.06597,0.0254 l -0.650562,-0.0448 c -0.04015,-0.007 -0.07044,-0.0387 -0.01165,-0.0928 l 0.04025,-0.0402 c 0.0222,-0.0222 0.02252,-0.058 3.32e-4,-0.0802 l -0.04991,-0.0499 c -0.02217,-0.0222 -0.05833,-0.0222 -0.08051,0 l -0.236078,0.23608 c -0.0071,0.007 -0.009,0.007 -0.01871,0.006 l -0.622838,-0.0366 c -0.05727,-0.0103 -0.04643,-0.0459 -0.007,-0.0888 l 0.07352,-0.0735 c 0.0222,-0.0222 0.02252,-0.058 3.34e-4,-0.0802 l -0.04991,-0.0499 c -0.02217,-0.0222 -0.05833,-0.0222 -0.08051,0 l -0.244522,0.24453 c -0.0031,0.003 -0.0047,0.002 -0.0076,0.003 l -0.658735,-0.0485 c -0.05134,0.006 -0.07783,0.006 -0.125752,0.0559 l -0.138388,0.13587 c -0.0215,0.0158 -0.0115,0.0406 0.0066,0.047 0,0 0.976671,0.23104 1.310471,0.3604 0.333825,0.12935 0.712622,0.36794 0.712622,0.36794 0.02956,0.0181 0.05153,0.0386 0.03527,0.0732 l -0.990384,0.99038 -0.04125,0.0413 c -0.122507,0.12376 -0.150507,0.24476 -0.241861,0.24186 l -0.759085,-0.0108 c -0.04831,0.002 -0.0831,0.009 -0.126102,0.0469 l -0.04205,0.0432 c -0.01865,0.0212 -0.02142,0.039 -7.62e-4,0.0549 l 0.613429,0.37133 c 0.01696,0.009 0.02587,0.0205 0.02242,0.0421 l -0.06048,0.16106 0.175431,-0.0518 c 0.0207,-0.004 0.04255,0.007 0.0503,0.023 0.11591,0.18785 0.231818,0.37569 0.347732,0.56353 0.01716,0.0219 0.03357,0.0372 0.06215,0.0136 l 0.06507,-0.0651 c 0.03466,-0.0551 0.02978,-0.10182 0.02972,-0.15588 l -0.05737,-0.71561 c 5.09e-4,-0.0728 0.113714,-0.11438 0.25018,-0.22623 l 0.04092,-0.0409 0.97877,-0.97877 5.93e-4,2e-5 3.45e-4,3.3e-4 3.01e-4,-3e-4 3.41e-4,3.4e-4 3.01e-4,-3e-4 3.43e-4,3.4e-4 3e-4,-3e-4 3.42e-4,3.4e-4 c 0.0018,-10e-4 0.0036,-0.003 0.0053,-0.003 0.0019,-0.001 0.0036,-0.002 0.0053,-0.003 0.0017,-8.5e-4 0.0033,-0.002 0.0049,-0.002 0.0016,-4.2e-4 0.0032,-0.002 0.0049,-0.002 0.0017,-4.3e-4 0.0035,-0.001 0.005,-0.002 0.0018,-4e-4 0.0034,-8.5e-4 0.005,-8.5e-4 0.0015,-2e-5 0.0032,-2e-5 0.0051,-3.9e-4 0.0017,1e-5 0.0035,7e-5 0.0053,1e-4 0.0018,6e-5 0.0028,4.3e-4 0.0046,8.5e-4 0.0016,4.1e-4 0.0037,8.5e-4 0.0054,10e-4 0.0017,4.2e-4 0.003,0.001 0.0045,0.002 0.0015,8.4e-4 0.0032,0.002 0.0049,0.003 0.0017,8.5e-4 0.0031,0.002 0.0045,0.003 0.0016,0.001 0.003,0.003 0.0046,0.005 0.0017,0.001 0.0031,0.003 0.0047,0.005 0.0016,0.002 0.0031,0.004 0.0046,0.006 0,0 0.219476,0.34103 0.35598,0.67734 0.136503,0.33631 0.389602,1.34407 0.389602,1.34407 0.01145,0.0174 0.02573,0.0275 0.04182,0.0152 l 0.127483,-0.12748 c 0.03504,-0.0334 0.04517,-0.084 0.04391,-0.11245 l -0.03986,-0.65224 c 0.0026,-0.0264 0.0027,-0.0319 0.01093,-0.0407 l 0.24218,-0.24218 c 0.0222,-0.0222 0.02218,-0.0583 2e-6,-0.0805 l -0.04991,-0.0499 c -0.02217,-0.0222 -0.05799,-0.0219 -0.08017,3.2e-4 l -0.07352,0.0735 c -0.03987,0.0476 -0.06771,0.0522 -0.07419,0.004 l -0.04792,-0.63083 c -0.0011,-0.0141 -0.0026,-0.0162 0.0039,-0.0224 l 0.235368,-0.23537 c 0.0222,-0.0222 0.02219,-0.0583 3e-6,-0.0805 l -0.04991,-0.0499 c -0.02217,-0.0222 -0.05799,-0.0219 -0.08017,3.1e-4 l -0.04025,0.0402 c -0.05042,0.0617 -0.09848,0.0361 -0.09614,-0.0156 l -0.04207,-0.64862 c -0.0016,-0.0306 0.0058,-0.041 0.02445,-0.063 l 0.451527,-0.45153 c 0.04355,-0.0457 0.0912,-0.0982 0.127068,-0.14385 0.138025,-0.17827 0.417996,-0.58081 0.303688,-0.61892 z"
       fill-rule="evenodd"
       id="path492"
       style="fill:#d45500;stroke-width:0.0105254" />
  </g>
</svg>
