<svg width="97" height="74" viewBox="0 0 97 74" fill="none" xmlns="http://www.w3.org/2000/svg">
<path d="M49.8243 50.699V42.3357H51.998V56.4833H49.8243V54.0886H49.6769C49.3453 54.807 48.8295 55.418 48.1295 55.9215C47.4295 56.4189 46.5453 56.6676 45.4768 56.6676C44.5926 56.6676 43.8066 56.4741 43.1189 56.0873C42.4312 55.6943 41.8908 55.1048 41.4978 54.3188C41.1048 53.5267 40.9083 52.5289 40.9083 51.3253V42.3357H43.082V51.178C43.082 52.2096 43.3706 53.0324 43.9478 53.6464C44.5312 54.2605 45.2742 54.5675 46.1768 54.5675C46.7172 54.5675 47.2668 54.4294 47.8255 54.153C48.3905 53.8767 48.8633 53.453 49.244 52.882C49.6308 52.3109 49.8243 51.5832 49.8243 50.699ZM58.0057 51.3253L57.9688 48.6358H58.4109L64.6005 42.3357H67.29L60.6952 49.0043H60.511L58.0057 51.3253ZM55.9793 56.4833V37.6198H58.153V56.4833H55.9793ZM64.969 56.4833L59.4425 49.4832L60.9899 47.9727L67.7322 56.4833H64.969ZM72.1141 51.3253L72.0773 48.6358H72.5194L78.709 42.3357H81.3985L74.8037 49.0043H74.6195L72.1141 51.3253ZM70.0878 56.4833V37.6198H72.2615V56.4833H70.0878ZM79.0774 56.4833L73.551 49.4832L75.0984 47.9727L81.8406 56.4833H79.0774ZM85.5963 61.7887C85.2279 61.7887 84.8994 61.758 84.6108 61.6966C84.3221 61.6413 84.1226 61.5861 84.0121 61.5308L84.5647 59.615C85.0928 59.7501 85.5595 59.7992 85.9647 59.7623C86.37 59.7255 86.7292 59.5444 87.0424 59.2189C87.3617 58.8996 87.6534 58.3807 87.9174 57.6623L88.3227 56.557L83.091 42.3357H85.4489L89.3543 53.6096H89.5016L93.407 42.3357H95.7649L89.7595 58.5465C89.4893 59.2772 89.1547 59.8821 88.7556 60.361C88.3564 60.8461 87.8928 61.2054 87.3647 61.4387C86.8428 61.672 86.2533 61.7887 85.5963 61.7887Z" fill="black"/>
<path d="M63.47 37.9738C62.5735 37.9738 61.7599 37.8049 61.0291 37.4672C60.2984 37.1233 59.7182 36.629 59.2883 35.9843C58.8585 35.3334 58.6436 34.5474 58.6436 33.6263C58.6436 32.8158 58.8032 32.1588 59.1225 31.6553C59.4418 31.1456 59.8686 30.7465 60.4028 30.4579C60.937 30.1693 61.5265 29.9544 62.1713 29.8131C62.8222 29.6658 63.4761 29.5491 64.1331 29.4631C64.9928 29.3526 65.6898 29.2697 66.224 29.2144C66.7643 29.153 67.1573 29.0517 67.4029 28.9105C67.6547 28.7692 67.7806 28.5236 67.7806 28.1736V28.0999C67.7806 27.1911 67.5319 26.485 67.0345 25.9815C66.5433 25.478 65.7972 25.2262 64.7963 25.2262C63.7586 25.2262 62.945 25.4534 62.3555 25.9078C61.766 26.3622 61.3515 26.8473 61.112 27.3631L59.0488 26.6262C59.4173 25.7666 59.9085 25.0972 60.5226 24.6183C61.1427 24.1332 61.8182 23.7955 62.5489 23.6051C63.2858 23.4086 64.0103 23.3104 64.7226 23.3104C65.177 23.3104 65.699 23.3656 66.2884 23.4762C66.8841 23.5806 67.4582 23.7985 68.0108 24.1301C68.5696 24.4617 69.0332 24.9622 69.4017 25.6315C69.7701 26.3008 69.9543 27.1973 69.9543 28.321V37.6422H67.7806V35.7264H67.67C67.5227 36.0334 67.2771 36.3619 66.9332 36.7119C66.5893 37.0619 66.1319 37.3598 65.5608 37.6054C64.9897 37.851 64.2928 37.9738 63.47 37.9738ZM63.8016 36.0211C64.6612 36.0211 65.3858 35.8523 65.9753 35.5145C66.5709 35.1768 67.0192 34.7408 67.32 34.2066C67.6271 33.6724 67.7806 33.1106 67.7806 32.5211V30.5316C67.6885 30.6421 67.4858 30.7434 67.1727 30.8355C66.8656 30.9215 66.5095 30.9982 66.1042 31.0658C65.7051 31.1272 65.3152 31.1824 64.9345 31.2316C64.5599 31.2746 64.256 31.3114 64.0226 31.3421C63.4577 31.4158 62.9296 31.5355 62.4384 31.7013C61.9533 31.861 61.5603 32.1035 61.2594 32.429C60.9647 32.7483 60.8173 33.1842 60.8173 33.7369C60.8173 34.4922 61.0967 35.0632 61.6555 35.4501C62.2204 35.8308 62.9358 36.0211 63.8016 36.0211ZM73.9218 37.6422V23.4946H76.0955V37.6422H73.9218ZM75.0271 21.1367C74.6034 21.1367 74.238 20.9923 73.931 20.7037C73.6301 20.4151 73.4797 20.0682 73.4797 19.6629C73.4797 19.2577 73.6301 18.9107 73.931 18.6221C74.238 18.3335 74.6034 18.1892 75.0271 18.1892C75.4508 18.1892 75.8131 18.3335 76.114 18.6221C76.421 18.9107 76.5745 19.2577 76.5745 19.6629C76.5745 20.0682 76.421 20.4151 76.114 20.7037C75.8131 20.9923 75.4508 21.1367 75.0271 21.1367ZM80.0769 37.6422V23.4946H82.1769V25.6315H82.3243C82.5822 24.9315 83.0488 24.3635 83.7243 23.9275C84.3997 23.4915 85.1612 23.2735 86.0085 23.2735C86.1682 23.2735 86.3678 23.2766 86.6072 23.2827C86.8467 23.2889 87.0279 23.2981 87.1507 23.3104V25.5209C87.077 25.5025 86.9081 25.4749 86.6441 25.438C86.3862 25.3951 86.1129 25.3736 85.8243 25.3736C85.1366 25.3736 84.5225 25.5179 83.9822 25.8065C83.448 26.0889 83.0243 26.4819 82.7111 26.9854C82.4041 27.4828 82.2506 28.0508 82.2506 28.6894V37.6422H80.0769Z" fill="black"/>
<path d="M6.06003 58.0878V14.1452H21.4228C24.4839 14.1452 27.0086 14.6745 28.9969 15.733C30.9851 16.7772 32.4656 18.1862 33.4383 19.9599C34.411 21.7193 34.8973 23.6718 34.8973 25.8175C34.8973 27.7056 34.5612 29.2648 33.8889 30.495C33.2309 31.7251 32.3583 32.6978 31.2712 33.413C30.1984 34.1282 29.0326 34.6575 27.7738 35.0008V35.4299C29.1184 35.5157 30.4702 35.9878 31.8291 36.846C33.188 37.7043 34.3252 38.9344 35.2406 40.5365C36.1561 42.1386 36.6139 44.0983 36.6139 46.4156C36.6139 48.6184 36.1132 50.5995 35.1119 52.359C34.1106 54.1184 32.53 55.513 30.3701 56.5429C28.2101 57.5728 25.3993 58.0878 21.9377 58.0878H6.06003ZM11.3812 53.3674H21.9377C25.4136 53.3674 27.8811 52.6951 29.3402 51.3505C30.8135 49.9916 31.5502 48.3466 31.5502 46.4156C31.5502 44.9279 31.1711 43.5547 30.413 42.2959C29.6548 41.0229 28.5749 40.0073 27.1731 39.2491C25.7713 38.4767 24.112 38.0905 22.1952 38.0905H11.3812V53.3674ZM11.3812 33.4559H21.2511C22.8532 33.4559 24.2979 33.1412 25.5853 32.5118C26.887 31.8825 27.9169 30.9956 28.675 29.8513C29.4474 28.7069 29.8337 27.3623 29.8337 25.8175C29.8337 23.8864 29.1614 22.2486 27.8168 20.904C26.4722 19.5451 24.3408 18.8656 21.4228 18.8656H11.3812V33.4559Z" fill="black"/>
<path fill-rule="evenodd" clip-rule="evenodd" d="M56.2037 21.4749C55.8393 21.1105 54.4601 22.1397 53.8336 22.6423C53.6494 22.8007 53.4793 22.942 53.3196 23.1016L51.6177 24.8035C51.517 24.8969 51.4732 24.9067 51.3683 24.8995L48.9095 24.7302C48.7577 24.7038 48.6433 24.5839 48.8655 24.3795L49.0176 24.2276C49.1015 24.1436 49.1027 24.0083 49.0189 23.9244L48.8302 23.7358C48.7464 23.6519 48.6098 23.6519 48.5259 23.7358L47.6337 24.6281C47.6068 24.6545 47.5997 24.6545 47.563 24.6507L45.2089 24.5124C44.9925 24.4735 45.0334 24.3389 45.1825 24.1768L45.4603 23.899C45.5442 23.8151 45.5454 23.6798 45.4616 23.5959L45.273 23.4073C45.1892 23.3234 45.0525 23.3234 44.9687 23.4073L44.0445 24.3315C44.0328 24.3428 44.0267 24.3391 44.0158 24.3428L41.5261 24.1596C41.332 24.1822 41.2319 24.1822 41.0508 24.3708L40.5277 24.8843C40.4465 24.944 40.4843 25.0378 40.5527 25.062C40.5527 25.062 44.244 25.9352 45.5056 26.4241C46.7673 26.913 48.199 27.8147 48.199 27.8147C48.3107 27.8832 48.3938 27.9606 48.3323 28.0914L44.5891 31.8346L44.4332 31.9906C43.9702 32.4584 43.8644 32.9158 43.5191 32.9048L40.6501 32.864C40.4675 32.8715 40.336 32.898 40.1735 33.0412L40.0146 33.2045C39.9441 33.2846 39.9336 33.3519 40.0117 33.412L42.3302 34.8154C42.3943 34.8494 42.428 34.893 42.4149 34.9746L42.1863 35.5833L42.8494 35.3875C42.9276 35.3724 43.0102 35.414 43.0395 35.4744C43.4776 36.1844 43.9156 36.8944 44.3537 37.6043C44.4186 37.6871 44.4806 37.7449 44.5886 37.6557L44.8346 37.4097C44.9656 37.2015 44.9471 37.0249 44.9469 36.8205L44.7301 34.1159C44.732 33.8407 45.1599 33.6836 45.6756 33.2609L45.8303 33.1062L49.5296 29.4069L49.5318 29.407L49.5331 29.4083L49.5343 29.4072L49.5356 29.4084L49.5367 29.4073L49.538 29.4086L49.5391 29.4074L49.5404 29.4087C49.5472 29.4049 49.554 29.3974 49.5604 29.3974C49.5676 29.3936 49.5741 29.3898 49.5805 29.3861C49.5869 29.3828 49.593 29.3785 49.599 29.3785C49.605 29.3769 49.6111 29.3709 49.6175 29.3709C49.624 29.3693 49.6307 29.3672 49.6364 29.3634C49.6432 29.3619 49.6493 29.3602 49.6553 29.3602C49.661 29.3601 49.6674 29.3601 49.6746 29.3587C49.681 29.3588 49.6878 29.3589 49.6946 29.3591C49.7014 29.3593 49.7052 29.3607 49.712 29.3623C49.7181 29.3638 49.726 29.3655 49.7324 29.366C49.7388 29.3676 49.7437 29.3698 49.7494 29.3736C49.7551 29.3768 49.7615 29.3812 49.7679 29.385C49.7744 29.3882 49.7797 29.3925 49.785 29.3963C49.791 29.4001 49.7963 29.4076 49.8023 29.4152C49.8088 29.419 49.8141 29.4265 49.8201 29.4341C49.8262 29.4416 49.8318 29.4492 49.8375 29.4568C49.8375 29.4568 50.667 30.7457 51.1829 32.0168C51.6988 33.2879 52.6554 37.0967 52.6554 37.0967C52.6987 37.1625 52.7527 37.2007 52.8135 37.1542L53.2953 36.6724C53.4278 36.5461 53.466 36.3549 53.4613 36.2473L53.3106 33.7822C53.3205 33.6824 53.3208 33.6616 53.3519 33.6284L54.2673 32.713C54.3512 32.6291 54.3511 32.4927 54.2673 32.4088L54.0786 32.2202C53.9948 32.1363 53.8595 32.1374 53.7756 32.2214L53.4978 32.4992C53.3471 32.6791 53.2418 32.6965 53.2174 32.5144L53.0362 30.1301C53.0321 30.0768 53.0264 30.0688 53.051 30.0454L53.9406 29.1558C54.0245 29.0719 54.0244 28.9355 53.9406 28.8516L53.7519 28.663C53.6681 28.5791 53.5328 28.5802 53.4489 28.6642L53.2968 28.8161C53.1062 29.0493 52.9246 28.9525 52.9334 28.7571L52.7744 26.3057C52.7684 26.19 52.7964 26.1507 52.8669 26.0675L54.5734 24.361C54.738 24.1883 54.9181 23.9898 55.0537 23.8173C55.5753 23.1435 56.6335 21.6221 56.2015 21.4781L56.2037 21.4749Z" fill="#F1A501"/>
</svg>
