<svg width="95" height="74" viewBox="0 0 95 74" fill="none" xmlns="http://www.w3.org/2000/svg">
<g filter="url(#filter0_dd_5_2)">
<path d="M47.256 50.699V42.3357H49.3177V56.4833H47.256V54.0886H47.1162C46.8017 54.807 46.3125 55.418 45.6486 55.9215C44.9847 56.4189 44.1461 56.6676 43.1326 56.6676C42.294 56.6676 41.5485 56.4741 40.8963 56.0873C40.244 55.6943 39.7315 55.1048 39.3587 54.3188C38.986 53.5267 38.7996 52.5289 38.7996 51.3253V42.3357H40.8613V51.178C40.8613 52.2096 41.135 53.0324 41.6824 53.6464C42.2358 54.2605 42.9405 54.5675 43.7966 54.5675C44.3091 54.5675 44.8304 54.4294 45.3603 54.153C45.8961 53.8767 46.3446 53.453 46.7056 52.882C47.0725 52.3109 47.256 51.5832 47.256 50.699ZM55.0157 51.3253L54.9807 48.6358H55.4L61.2706 42.3357H63.8214L57.5666 49.0043H57.3919L55.0157 51.3253ZM53.0938 56.4833V37.6198H55.1554V56.4833H53.0938ZM61.6201 56.4833L56.3785 49.4832L57.8461 47.9727L64.2408 56.4833H61.6201ZM68.3969 51.3253L68.362 48.6358H68.7813L74.6518 42.3357H77.2027L70.9478 49.0043H70.7731L68.3969 51.3253ZM66.475 56.4833V37.6198H68.5367V56.4833H66.475ZM75.0012 56.4833L69.7597 49.4832L71.2273 47.9727L77.622 56.4833H75.0012ZM81.1841 61.7887C80.8347 61.7887 80.5231 61.758 80.2494 61.6966C79.9756 61.6413 79.7864 61.5861 79.6816 61.5308L80.2057 59.615C80.7066 59.7501 81.1492 59.7992 81.5335 59.7623C81.9179 59.7255 82.2586 59.5444 82.5557 59.2189C82.8585 58.8996 83.1352 58.3807 83.3856 57.6623L83.77 56.557L78.808 42.3357H81.0443L84.7484 53.6096H84.8881L88.5922 42.3357H90.8286L85.1327 58.5465C84.8764 59.2772 84.5591 59.8821 84.1806 60.361C83.8019 60.8461 83.3622 61.2054 82.8614 61.4387C82.3664 61.672 81.8073 61.7887 81.1841 61.7887Z" fill="#DDDDDD"/>
<path d="M60.1984 37.9738C59.3481 37.9738 58.5764 37.8049 57.8833 37.4672C57.1902 37.1233 56.6399 36.629 56.2322 35.9843C55.8246 35.3334 55.6207 34.5474 55.6207 33.6263C55.6207 32.8158 55.7721 32.1588 56.075 31.6553C56.3778 31.1456 56.7826 30.7465 57.2893 30.4579C57.7959 30.1693 58.355 29.9544 58.9666 29.8131C59.5839 29.6658 60.2041 29.5491 60.8273 29.4631C61.6427 29.3526 62.3037 29.2697 62.8104 29.2144C63.3228 29.153 63.6956 29.0517 63.9285 28.9105C64.1673 28.7692 64.2868 28.5236 64.2868 28.1736V28.0999C64.2868 27.1911 64.0509 26.485 63.5791 25.9815C63.1132 25.478 62.4056 25.2262 61.4563 25.2262C60.4721 25.2262 59.7004 25.4534 59.1413 25.9078C58.5822 26.3622 58.1891 26.8473 57.9619 27.3631L56.005 26.6262C56.3546 25.7666 56.8204 25.0972 57.4029 24.6183C57.991 24.1332 58.6317 23.7955 59.3247 23.6051C60.0236 23.4086 60.7108 23.3104 61.3864 23.3104C61.8174 23.3104 62.3125 23.3656 62.8715 23.4762C63.4365 23.5806 63.981 23.7985 64.5051 24.1301C65.0351 24.4617 65.4748 24.9622 65.8243 25.6315C66.1737 26.3008 66.3484 27.1973 66.3484 28.321V37.6422H64.2868V35.7264H64.1819C64.0421 36.0334 63.8092 36.3619 63.483 36.7119C63.1569 37.0619 62.723 37.3598 62.1814 37.6054C61.6397 37.851 60.9787 37.9738 60.1984 37.9738ZM60.5129 36.0211C61.3282 36.0211 62.0154 35.8523 62.5745 35.5145C63.1394 35.1768 63.5646 34.7408 63.8499 34.2066C64.1412 33.6724 64.2868 33.1106 64.2868 32.5211V30.5316C64.1994 30.6421 64.0072 30.7434 63.7102 30.8355C63.4189 30.9215 63.0812 30.9982 62.6968 31.0658C62.3182 31.1272 61.9484 31.1824 61.5874 31.2316C61.2321 31.2746 60.9438 31.3114 60.7225 31.3421C60.1867 31.4158 59.6858 31.5355 59.2199 31.7013C58.7598 31.861 58.3871 32.1035 58.1017 32.429C57.8222 32.7483 57.6824 33.1842 57.6824 33.7369C57.6824 34.4922 57.9474 35.0632 58.4774 35.4501C59.0132 35.8308 59.6917 36.0211 60.5129 36.0211ZM70.1114 37.6422V23.4946H72.173V37.6422H70.1114ZM71.1597 21.1367C70.7579 21.1367 70.4113 20.9923 70.1201 20.7037C69.8347 20.4151 69.6921 20.0682 69.6921 19.6629C69.6921 19.2577 69.8347 18.9107 70.1201 18.6221C70.4113 18.3335 70.7579 18.1892 71.1597 18.1892C71.5616 18.1892 71.9052 18.3335 72.1906 18.6221C72.4818 18.9107 72.6274 19.2577 72.6274 19.6629C72.6274 20.0682 72.4818 20.4151 72.1906 20.7037C71.9052 20.9923 71.5616 21.1367 71.1597 21.1367ZM75.9492 37.6422V23.4946H77.941V25.6315H78.0808C78.3254 24.9315 78.7679 24.3635 79.4086 23.9275C80.0492 23.4915 80.7714 23.2735 81.5751 23.2735C81.7265 23.2735 81.9159 23.2766 82.1429 23.2827C82.3701 23.2889 82.5419 23.2981 82.6584 23.3104V25.5209C82.5885 25.5025 82.4283 25.4749 82.1779 25.438C81.9333 25.3951 81.6741 25.3736 81.4004 25.3736C80.7481 25.3736 80.1657 25.5179 79.6532 25.8065C79.1466 26.0889 78.7447 26.4819 78.4476 26.9854C78.1565 27.4828 78.0109 28.0508 78.0109 28.6894V37.6422H75.9492Z" fill="#DDDDDD"/>
<path d="M5.74766 58.0878V14.1452H20.3185C23.2218 14.1452 25.6164 14.6745 27.5022 15.733C29.3879 16.7772 30.7921 18.1862 31.7147 19.9599C32.6372 21.7193 33.0985 23.6718 33.0985 25.8175C33.0985 27.7056 32.7797 29.2648 32.1421 30.495C31.518 31.7251 30.6903 32.6978 29.6593 33.413C28.6418 34.1282 27.5361 34.6575 26.3422 35.0008V35.4299C27.6175 35.5157 28.8996 35.9878 30.1884 36.846C31.4773 37.7043 32.5559 38.9344 33.4241 40.5365C34.2924 42.1386 34.7266 44.0983 34.7266 46.4156C34.7266 48.6184 34.2517 50.5995 33.302 52.359C32.3523 54.1184 30.8532 55.513 28.8046 56.5429C26.756 57.5728 24.0901 58.0878 20.8069 58.0878H5.74766ZM10.7945 53.3674H20.8069C24.1036 53.3674 26.4439 52.6951 27.8278 51.3505C29.2252 49.9916 29.9239 48.3466 29.9239 46.4156C29.9239 44.9279 29.5643 43.5547 28.8453 42.2959C28.1262 41.0229 27.102 40.0073 25.7724 39.2491C24.4429 38.4767 22.8691 38.0905 21.0511 38.0905H10.7945V53.3674ZM10.7945 33.4559H20.1557C21.6752 33.4559 23.0454 33.1412 24.2665 32.5118C25.5011 31.8825 26.4779 30.9956 27.1969 29.8513C27.9295 28.7069 28.2959 27.3623 28.2959 25.8175C28.2959 23.8864 27.6582 22.2486 26.3829 20.904C25.1077 19.5451 23.0861 18.8656 20.3185 18.8656H10.7945V33.4559Z" fill="#DDDDDD"/>
<path fill-rule="evenodd" clip-rule="evenodd" d="M53.3066 21.4749C52.961 21.1105 51.6529 22.1397 51.0587 22.6423C50.884 22.8007 50.7226 22.942 50.5712 23.1016L48.957 24.8035C48.8615 24.8969 48.8199 24.9067 48.7205 24.8995L46.3884 24.7302C46.2444 24.7038 46.1359 24.5839 46.3467 24.3795L46.4909 24.2276C46.5705 24.1436 46.5716 24.0083 46.4922 23.9244L46.3132 23.7358C46.2337 23.6519 46.1041 23.6519 46.0246 23.7358L45.1784 24.6281C45.1528 24.6545 45.1461 24.6545 45.1113 24.6507L42.8785 24.5124C42.6733 24.4735 42.7121 24.3389 42.8535 24.1768L43.117 23.899C43.1966 23.8151 43.1977 23.6798 43.1182 23.5959L42.9393 23.4073C42.8599 23.3234 42.7302 23.3234 42.6507 23.4073L41.7742 24.3315C41.7631 24.3428 41.7573 24.3391 41.7469 24.3428L39.3856 24.1596C39.2015 24.1822 39.1065 24.1822 38.9348 24.3708L38.4386 24.8843C38.3616 24.944 38.3975 25.0378 38.4624 25.062C38.4624 25.062 41.9634 25.9352 43.16 26.4241C44.3566 26.913 45.7145 27.8147 45.7145 27.8147C45.8205 27.8832 45.8993 27.9606 45.8409 28.0914L42.2907 31.8346L42.1428 31.9906C41.7037 32.4584 41.6034 32.9158 41.2759 32.9048L38.5547 32.864C38.3816 32.8715 38.2568 32.898 38.1027 33.0412L37.952 33.2045C37.8851 33.2846 37.8752 33.3519 37.9492 33.412L40.1482 34.8154C40.209 34.8494 40.241 34.893 40.2286 34.9746L40.0118 35.5833L40.6407 35.3875C40.7148 35.3724 40.7932 35.414 40.821 35.4744C41.2365 36.1844 41.6519 36.8944 42.0674 37.6043C42.129 37.6871 42.1878 37.7449 42.2902 37.6557L42.5235 37.4097C42.6478 37.2015 42.6302 37.0249 42.6301 36.8205L42.4244 34.1159C42.4262 33.8407 42.8321 33.6836 43.3212 33.2609L43.4679 33.1062L46.9765 29.4069L46.9786 29.407L46.9799 29.4083L46.981 29.4072L46.9822 29.4084L46.9833 29.4073L46.9845 29.4086L46.9855 29.4074L46.9868 29.4087C46.9932 29.4049 46.9997 29.3974 47.0057 29.3974C47.0126 29.3936 47.0187 29.3898 47.0248 29.3861C47.0309 29.3828 47.0367 29.3785 47.0424 29.3785C47.048 29.3769 47.0538 29.3709 47.0599 29.3709C47.0661 29.3693 47.0724 29.3672 47.0778 29.3634C47.0843 29.3619 47.0901 29.3602 47.0958 29.3602C47.1012 29.3601 47.1072 29.3601 47.1141 29.3587C47.1201 29.3588 47.1266 29.3589 47.133 29.3591C47.1395 29.3593 47.1431 29.3607 47.1495 29.3623C47.1553 29.3638 47.1628 29.3655 47.1689 29.366C47.1749 29.3676 47.1796 29.3698 47.185 29.3736C47.1904 29.3768 47.1965 29.3812 47.2025 29.385C47.2087 29.3882 47.2137 29.3925 47.2188 29.3963C47.2245 29.4001 47.2295 29.4076 47.2352 29.4152C47.2413 29.419 47.2464 29.4265 47.2521 29.4341C47.2578 29.4416 47.2632 29.4492 47.2686 29.4568C47.2686 29.4568 48.0553 30.7457 48.5446 32.0168C49.0339 33.2879 49.9412 37.0967 49.9412 37.0967C49.9823 37.1625 50.0335 37.2007 50.0912 37.1542L50.5481 36.6724C50.6738 36.5461 50.71 36.3549 50.7056 36.2473L50.5626 33.7822C50.572 33.6824 50.5723 33.6616 50.6018 33.6284L51.47 32.713C51.5496 32.6291 51.5495 32.4927 51.47 32.4088L51.291 32.2202C51.2116 32.1363 51.0832 32.1374 51.0037 32.2214L50.7402 32.4992C50.5973 32.6791 50.4974 32.6965 50.4742 32.5144L50.3024 30.1301C50.2985 30.0768 50.2931 30.0688 50.3164 30.0454L51.1602 29.1558C51.2397 29.0719 51.2396 28.9355 51.1602 28.8516L50.9812 28.663C50.9017 28.5791 50.7734 28.5802 50.6938 28.6642L50.5495 28.8161C50.3688 29.0493 50.1965 28.9525 50.2049 28.7571L50.0541 26.3057C50.0484 26.19 50.0749 26.1507 50.1418 26.0675L51.7603 24.361C51.9165 24.1883 52.0873 23.9898 52.2159 23.8173C52.7106 23.1435 53.7143 21.6221 53.3045 21.4781L53.3066 21.4749Z" fill="#DF4D30"/>
</g>
<defs>
<filter id="filter0_dd_5_2" x="-4" y="0" width="100" height="82" filterUnits="userSpaceOnUse" color-interpolation-filters="sRGB">
<feFlood flood-opacity="0" result="BackgroundImageFix"/>
<feColorMatrix in="SourceAlpha" type="matrix" values="0 0 0 0 0 0 0 0 0 0 0 0 0 0 0 0 0 0 127 0" result="hardAlpha"/>
<feOffset dy="4"/>
<feGaussianBlur stdDeviation="2"/>
<feComposite in2="hardAlpha" operator="out"/>
<feColorMatrix type="matrix" values="0 0 0 0 0 0 0 0 0 0 0 0 0 0 0 0 0 0 0.25 0"/>
<feBlend mode="normal" in2="BackgroundImageFix" result="effect1_dropShadow_5_2"/>
<feColorMatrix in="SourceAlpha" type="matrix" values="0 0 0 0 0 0 0 0 0 0 0 0 0 0 0 0 0 0 127 0" result="hardAlpha"/>
<feOffset dy="4"/>
<feGaussianBlur stdDeviation="2"/>
<feComposite in2="hardAlpha" operator="out"/>
<feColorMatrix type="matrix" values="0 0 0 0 0 0 0 0 0 0 0 0 0 0 0 0 0 0 0.25 0"/>
<feBlend mode="normal" in2="effect1_dropShadow_5_2" result="effect2_dropShadow_5_2"/>
<feBlend mode="normal" in="SourceGraphic" in2="effect2_dropShadow_5_2" result="shape"/>
</filter>
</defs>
</svg>
